<mxfile host="app.diagrams.net" modified="2023-10-03T15:52:54.506Z" agent="Mozilla/5.0 (Windows NT 10.0; Win64; x64) AppleWebKit/537.36 (KHTML, like Gecko) Chrome/117.0.0.0 Safari/537.36" etag="XB90Eg0UNajB6K4WNaJb" version="22.0.2" type="device">
  <diagram name="Страница — 1" id="KmhVLE2mm1CqgZjpSQj7">
    <mxGraphModel dx="1434" dy="790" grid="1" gridSize="10" guides="1" tooltips="1" connect="1" arrows="1" fold="1" page="1" pageScale="1" pageWidth="827" pageHeight="1169" math="0" shadow="0">
      <root>
        <mxCell id="0" />
        <mxCell id="1" parent="0" />
        <mxCell id="o91icOfQm2JD-C9SMsUK-3" value="" style="edgeStyle=orthogonalEdgeStyle;rounded=0;orthogonalLoop=1;jettySize=auto;html=1;" edge="1" parent="1" source="o91icOfQm2JD-C9SMsUK-1" target="o91icOfQm2JD-C9SMsUK-2">
          <mxGeometry relative="1" as="geometry" />
        </mxCell>
        <mxCell id="o91icOfQm2JD-C9SMsUK-1" value="Старт" style="rounded=1;whiteSpace=wrap;html=1;" vertex="1" parent="1">
          <mxGeometry x="340" y="60" width="110" height="40" as="geometry" />
        </mxCell>
        <mxCell id="o91icOfQm2JD-C9SMsUK-5" value="" style="edgeStyle=orthogonalEdgeStyle;rounded=0;orthogonalLoop=1;jettySize=auto;html=1;" edge="1" parent="1" source="o91icOfQm2JD-C9SMsUK-2" target="o91icOfQm2JD-C9SMsUK-4">
          <mxGeometry relative="1" as="geometry" />
        </mxCell>
        <mxCell id="o91icOfQm2JD-C9SMsUK-2" value="Вводим количество элементов в массиве - N" style="shape=parallelogram;perimeter=parallelogramPerimeter;whiteSpace=wrap;html=1;fixedSize=1;" vertex="1" parent="1">
          <mxGeometry x="310" y="130" width="170" height="70" as="geometry" />
        </mxCell>
        <mxCell id="o91icOfQm2JD-C9SMsUK-7" value="" style="edgeStyle=orthogonalEdgeStyle;rounded=0;orthogonalLoop=1;jettySize=auto;html=1;" edge="1" parent="1" source="o91icOfQm2JD-C9SMsUK-4" target="o91icOfQm2JD-C9SMsUK-6">
          <mxGeometry relative="1" as="geometry" />
        </mxCell>
        <mxCell id="o91icOfQm2JD-C9SMsUK-4" value="Вводим элементы массива strings; indexStrings = 0;&lt;br&gt;Вводим массив result размерностью N; indexResult = 0;" style="shape=parallelogram;perimeter=parallelogramPerimeter;whiteSpace=wrap;html=1;fixedSize=1;" vertex="1" parent="1">
          <mxGeometry x="213.75" y="230" width="362.5" height="70" as="geometry" />
        </mxCell>
        <mxCell id="o91icOfQm2JD-C9SMsUK-12" value="" style="edgeStyle=orthogonalEdgeStyle;rounded=0;orthogonalLoop=1;jettySize=auto;html=1;" edge="1" parent="1" source="o91icOfQm2JD-C9SMsUK-6" target="o91icOfQm2JD-C9SMsUK-11">
          <mxGeometry relative="1" as="geometry" />
        </mxCell>
        <mxCell id="o91icOfQm2JD-C9SMsUK-13" value="NO" style="edgeLabel;html=1;align=center;verticalAlign=middle;resizable=0;points=[];" vertex="1" connectable="0" parent="o91icOfQm2JD-C9SMsUK-12">
          <mxGeometry x="-0.2936" y="3" relative="1" as="geometry">
            <mxPoint as="offset" />
          </mxGeometry>
        </mxCell>
        <mxCell id="o91icOfQm2JD-C9SMsUK-17" value="" style="edgeStyle=orthogonalEdgeStyle;rounded=0;orthogonalLoop=1;jettySize=auto;html=1;" edge="1" parent="1" source="o91icOfQm2JD-C9SMsUK-6" target="o91icOfQm2JD-C9SMsUK-16">
          <mxGeometry relative="1" as="geometry" />
        </mxCell>
        <mxCell id="o91icOfQm2JD-C9SMsUK-6" value="indexStrings &amp;lt; N" style="rhombus;whiteSpace=wrap;html=1;" vertex="1" parent="1">
          <mxGeometry x="338.75" y="330" width="112.5" height="80" as="geometry" />
        </mxCell>
        <mxCell id="o91icOfQm2JD-C9SMsUK-15" value="" style="edgeStyle=orthogonalEdgeStyle;rounded=0;orthogonalLoop=1;jettySize=auto;html=1;" edge="1" parent="1" source="o91icOfQm2JD-C9SMsUK-11" target="o91icOfQm2JD-C9SMsUK-14">
          <mxGeometry relative="1" as="geometry" />
        </mxCell>
        <mxCell id="o91icOfQm2JD-C9SMsUK-11" value="Выводим массив result" style="shape=document;whiteSpace=wrap;html=1;boundedLbl=1;" vertex="1" parent="1">
          <mxGeometry x="510" y="345" width="122.5" height="50" as="geometry" />
        </mxCell>
        <mxCell id="o91icOfQm2JD-C9SMsUK-14" value="Конец" style="rounded=1;whiteSpace=wrap;html=1;" vertex="1" parent="1">
          <mxGeometry x="670" y="350" width="76.25" height="40" as="geometry" />
        </mxCell>
        <mxCell id="o91icOfQm2JD-C9SMsUK-18" style="edgeStyle=orthogonalEdgeStyle;rounded=0;orthogonalLoop=1;jettySize=auto;html=1;exitX=0;exitY=0.5;exitDx=0;exitDy=0;entryX=0;entryY=0.5;entryDx=0;entryDy=0;" edge="1" parent="1" source="o91icOfQm2JD-C9SMsUK-16" target="o91icOfQm2JD-C9SMsUK-6">
          <mxGeometry relative="1" as="geometry" />
        </mxCell>
        <mxCell id="o91icOfQm2JD-C9SMsUK-20" value="NO" style="edgeLabel;html=1;align=center;verticalAlign=middle;resizable=0;points=[];" vertex="1" connectable="0" parent="o91icOfQm2JD-C9SMsUK-18">
          <mxGeometry x="-0.261" y="1" relative="1" as="geometry">
            <mxPoint as="offset" />
          </mxGeometry>
        </mxCell>
        <mxCell id="o91icOfQm2JD-C9SMsUK-22" value="" style="edgeStyle=orthogonalEdgeStyle;rounded=0;orthogonalLoop=1;jettySize=auto;html=1;" edge="1" parent="1" source="o91icOfQm2JD-C9SMsUK-16" target="o91icOfQm2JD-C9SMsUK-21">
          <mxGeometry relative="1" as="geometry" />
        </mxCell>
        <mxCell id="o91icOfQm2JD-C9SMsUK-23" value="YES" style="edgeLabel;html=1;align=center;verticalAlign=middle;resizable=0;points=[];" vertex="1" connectable="0" parent="o91icOfQm2JD-C9SMsUK-22">
          <mxGeometry x="0.129" y="3" relative="1" as="geometry">
            <mxPoint as="offset" />
          </mxGeometry>
        </mxCell>
        <mxCell id="o91icOfQm2JD-C9SMsUK-16" value="strings[indexStrings].Length &amp;lt;= 3" style="rhombus;whiteSpace=wrap;html=1;" vertex="1" parent="1">
          <mxGeometry x="294.38" y="440" width="201.25" height="120" as="geometry" />
        </mxCell>
        <mxCell id="o91icOfQm2JD-C9SMsUK-21" value="result[indexResult] = strings[indexStrings;&lt;br&gt;indexResult ++;" style="whiteSpace=wrap;html=1;" vertex="1" parent="1">
          <mxGeometry x="277.51" y="630" width="234.99" height="50" as="geometry" />
        </mxCell>
        <mxCell id="o91icOfQm2JD-C9SMsUK-25" style="edgeStyle=orthogonalEdgeStyle;rounded=0;orthogonalLoop=1;jettySize=auto;html=1;exitX=0;exitY=0.5;exitDx=0;exitDy=0;entryX=0;entryY=0;entryDx=0;entryDy=0;" edge="1" parent="1" source="o91icOfQm2JD-C9SMsUK-21" target="o91icOfQm2JD-C9SMsUK-6">
          <mxGeometry relative="1" as="geometry">
            <mxPoint x="187.51999999999998" y="655" as="sourcePoint" />
            <mxPoint x="249.99749999999995" y="378" as="targetPoint" />
            <Array as="points">
              <mxPoint x="210" y="655" />
              <mxPoint x="210" y="350" />
            </Array>
          </mxGeometry>
        </mxCell>
      </root>
    </mxGraphModel>
  </diagram>
</mxfile>
